<svg xmlns="http://www.w3.org/2000/svg" viewBox="0 0 1200 540" role="img"><title>Representative optical schematic / 代表性光路概念图</title><rect width="1200" height="540" fill="white"/><g font-family="Microsoft YaHei,Arial,sans-serif"><text x="24" y="31.900000000000002" font-size="21" text-anchor="start" fill="#122d40" font-weight="700">DTS02  双端拉曼 OTDR</text><text x="24" y="58.5" font-size="15" text-anchor="start" fill="#566b79" font-weight="400">Double-ended Raman OTDR</text><rect x="35" y="142" width="128" height="54" rx="7" fill="#f2f7fa" stroke="#1765ad" stroke-width="1.5"/><text x="99.0" y="163.4" font-size="16" text-anchor="middle" fill="#122d40" font-weight="400">Laser / LD</text><text x="99.0" y="183.4" font-size="16" text-anchor="middle" fill="#122d40" font-weight="400">激光源</text><rect x="225" y="142" width="145" height="54" rx="7" fill="#f2f7fa" stroke="#1765ad" stroke-width="1.5"/><text x="297.5" y="163.4" font-size="16" text-anchor="middle" fill="#122d40" font-weight="400">Pulse / IM</text><text x="297.5" y="183.4" font-size="16" text-anchor="middle" fill="#122d40" font-weight="400">脉冲门控</text><polyline points="163,169 225,169" stroke="#1765ad" fill="none" stroke-width="2.5"/><polygon points="225,169 215.0,165.0 215.0,173.0" fill="#1765ad"/><text x="185" y="154.6" font-size="14" text-anchor="start" fill="#122d40" font-weight="400">B0</text><polyline points="370,169 448,169 468,180" stroke="#1765ad" fill="none" stroke-width="2.5"/><polygon points="468,180 461.1655159123222,171.67594886757183 457.3101659141449,178.68567613698502" fill="#1765ad"/><text x="390" y="151.6" font-size="14" text-anchor="start" fill="#122d40" font-weight="400">B1</text><circle cx="500" cy="180" r="32" fill="#e9f2f9" stroke="#1765ad" stroke-width="2"/><text x="500" y="185.4" font-size="16" text-anchor="middle" fill="#122d40" font-weight="700">CIR</text><text x="462" y="165.7" font-size="13" text-anchor="start" fill="#122d40" font-weight="400">1</text><text x="531" y="165.7" font-size="13" text-anchor="start" fill="#122d40" font-weight="400">2</text><text x="509" y="226.7" font-size="13" text-anchor="start" fill="#122d40" font-weight="400">3</text><rect x="225" y="77" width="145" height="38" rx="7" fill="#f2f7fa" stroke="#7b4db1" stroke-width="1.5"/><text x="297.5" y="100.4" font-size="16" text-anchor="middle" fill="#122d40" font-weight="400">AWG / trigger</text><polyline points="297,115 297,142" stroke="#7b4db1" fill="none" stroke-width="2.5" stroke-dasharray="6 5"/><polygon points="297,142 301.0,132.0 293.0,132.0" fill="#7b4db1"/><polyline points="532,180 615,180" stroke="#1765ad" fill="none" stroke-width="2.5"/><polygon points="615,180 605.0,176.0 605.0,184.0" fill="#1765ad"/><rect x="615" y="152" width="105" height="56" rx="7" fill="#f2f7fa" stroke="#1765ad" stroke-width="1.5"/><text x="667.5" y="184.4" font-size="16" text-anchor="middle" fill="#122d40" font-weight="400">SW · A / B</text><polyline points="720,166 760,166 760,137 1090,137 1090,250 760,250 760,194 720,194" stroke="#1765ad" fill="none" stroke-width="2.5"/><polyline points="790,137 970,137" stroke="#1765ad" fill="none" stroke-width="2.5"/><polygon points="970,137 960.0,133.0 960.0,141.0" fill="#1765ad"/><polyline points="970,155 790,155" stroke="#c36524" fill="none" stroke-width="2.5"/><polygon points="790,155 800.0,159.0 800.0,151.0" fill="#c36524"/><polyline points="790,250 970,250" stroke="#1765ad" fill="none" stroke-width="2.5"/><polygon points="970,250 960.0,246.0 960.0,254.0" fill="#1765ad"/><polyline points="970,268 790,268" stroke="#c36524" fill="none" stroke-width="2.5"/><polygon points="790,268 800.0,272.0 800.0,264.0" fill="#c36524"/><polyline points="615,194 555,194 532,180" stroke="#c36524" fill="none" stroke-width="2.5"/><polygon points="532,180 538.4621977685614,188.6162636914152 542.6217733437273,181.7826752464997" fill="#c36524"/><text x="850" y="108.3" font-size="17" text-anchor="start" fill="#122d40" font-weight="400">FUT · 同一光纤的两端</text><text x="774" y="160.5" font-size="15" text-anchor="start" fill="#122d40" font-weight="400">A</text><text x="775" y="241.5" font-size="15" text-anchor="start" fill="#122d40" font-weight="400">B</text><text x="850" y="286.5" font-size="15" text-anchor="start" fill="#566b79" font-weight="400">交替测量 / alternate</text><polyline points="500,212 500,275" stroke="#c36524" fill="none" stroke-width="2.5"/><polygon points="500,275 504.0,265.0 496.0,265.0" fill="#c36524"/><rect x="425" y="275" width="150" height="60" rx="7" fill="#f2f7fa" stroke="#21836d" stroke-width="1.5"/><text x="500.0" y="299.4" font-size="16" text-anchor="middle" fill="#122d40" font-weight="400">Raman WDM</text><text x="500.0" y="319.4" font-size="16" text-anchor="middle" fill="#122d40" font-weight="400">双谱带分离</text><rect x="230" y="365" width="175" height="58" rx="7" fill="#f2f7fa" stroke="#21836d" stroke-width="1.5"/><text x="317.5" y="388.4" font-size="16" text-anchor="middle" fill="#122d40" font-weight="400">PD / APD + TIA</text><text x="317.5" y="408.4" font-size="16" text-anchor="middle" fill="#122d40" font-weight="400">Stokes</text><rect x="610" y="365" width="175" height="58" rx="7" fill="#f2f7fa" stroke="#7b4db1" stroke-width="1.5"/><text x="697.5" y="388.4" font-size="16" text-anchor="middle" fill="#122d40" font-weight="400">PD / APD + TIA</text><text x="697.5" y="408.4" font-size="16" text-anchor="middle" fill="#122d40" font-weight="400">anti-Stokes</text><polyline points="425,305 317,305 317,365" stroke="#21836d" fill="none" stroke-width="2.5"/><polygon points="317,365 321.0,355.0 313.0,355.0" fill="#21836d"/><text x="323" y="339.6" font-size="14" text-anchor="start" fill="#21836d" font-weight="400">B2S</text><polyline points="575,305 697,305 697,365" stroke="#7b4db1" fill="none" stroke-width="2.5"/><polygon points="697,365 701.0,355.0 693.0,355.0" fill="#7b4db1"/><text x="704" y="339.6" font-size="14" text-anchor="start" fill="#7b4db1" font-weight="400">B2AS</text><rect x="425" y="453" width="150" height="45" rx="7" fill="#f2f7fa" stroke="#7b4db1" stroke-width="1.5"/><text x="500.0" y="479.9" font-size="16" text-anchor="middle" fill="#122d40" font-weight="400">ADC · 同步采样</text><polyline points="317,423 317,475 425,475" stroke="#7b4db1" fill="none" stroke-width="2.5" stroke-dasharray="6 5"/><polygon points="425,475 415.0,471.0 415.0,479.0" fill="#7b4db1"/><polyline points="697,423 697,475 575,475" stroke="#7b4db1" fill="none" stroke-width="2.5" stroke-dasharray="6 5"/><polygon points="575,475 585.0,479.0 585.0,471.0" fill="#7b4db1"/><rect x="920" y="355" width="208" height="60" rx="7" fill="#f2f7fa" stroke="#21836d" stroke-width="1.5"/><text x="1024.0" y="379.4" font-size="16" text-anchor="middle" fill="#122d40" font-weight="400">REF bath + RTD</text><text x="1024.0" y="399.4" font-size="16" text-anchor="middle" fill="#122d40" font-weight="400">参考温区 + 温度计</text><polyline points="1024,355 1024,250" stroke="#21836d" fill="none" stroke-width="2.5" stroke-dasharray="6 5"/><polygon points="1024,250 1020.0,260.0 1028.0,260.0" fill="#21836d"/><text x="1050" y="326.8" font-size="12" text-anchor="start" fill="#21836d" font-weight="400">thermal</text><text x="810" y="477.4" font-size="16" text-anchor="start" fill="#122d40" font-weight="400">Ratio → calibration → T(z)</text><text x="24" y="527.9" font-size="11" text-anchor="start" fill="#566b79" font-weight="400">Blue=launch / 蓝:发射  Orange/green=return/probe / 橙绿:回波/探测  Purple dashed=electrical / 紫虚线:电学  Green dashed=thermal / 绿虚线:温度参考</text></g></svg>